<svg width="1198" height="357" viewBox="0 0 1198 357" fill="none" xmlns="http://www.w3.org/2000/svg">
<path d="M297.5 42.5L359.5 150.5L243 108L180.5 0L297.5 42.5Z" fill="#F2CE1B"/>
<path d="M359.5 150.5L338 275.5L298.5 204L359.5 150.5Z" fill="#F2CE1B"/>
<path d="M241 356.5H118.5L213.5 275H338.5L241 356.5Z" fill="#F2CE1B"/>
<path d="M104.5 274.5H21.5L118.5 356.5L104.5 274.5Z" fill="#F2CE1B"/>
<path d="M0 151.5L62.5 43.5L83.5 165.5L21.5 274.5L0 151.5Z" fill="#F4D83E"/>
<path d="M0 151.5L62.5 43.5L83.5 165.5L21.5 274.5L0 151.5Z" fill="#F2CE1B"/>
<path d="M140.5 69.5L62.5 43.5L180.5 0L140.5 69.5Z" fill="#F2CE1B"/>
<path d="M298.5 204L213.5 276H339L298.5 204Z" fill="#FBF0B9"/>
<path d="M21.5 274.5L83.5 165.5L103 274.5H21.5Z" fill="#FBF0B9"/>
<path d="M139 69L180.5 0L243 108L139 69Z" fill="#FBF0B9"/>
<path d="M298.5 204L243 108L359.5 150.5L298.5 204Z" fill="#FBF0B9"/>
<path d="M118.5 356.5L103 274.5L215 275L118.5 356.5Z" fill="#FBF0B9"/>
<path d="M83.5 165.5L62.5 43.5L139 69L83.5 165.5Z" fill="#FBF0B9"/>
<path d="M83.5 165.5L139 69L243 108L298.5 204L215 275L103 274.5L83.5 165.5Z" fill="#67717E"/>
<path d="M404.29 220.74C404.29 211.333 406.217 203.003 410.07 195.75C414.037 188.497 419.363 182.887 426.05 178.92C432.85 174.84 440.387 172.8 448.66 172.8C454.78 172.8 460.787 174.16 466.68 176.88C472.687 179.487 477.447 183 480.96 187.42V142.2H500.51V268H480.96V253.89C477.787 258.423 473.367 262.163 467.7 265.11C462.147 268.057 455.743 269.53 448.49 269.53C440.33 269.53 432.85 267.49 426.05 263.41C419.363 259.217 414.037 253.437 410.07 246.07C406.217 238.59 404.29 230.147 404.29 220.74ZM480.96 221.08C480.96 214.62 479.6 209.01 476.88 204.25C474.273 199.49 470.817 195.863 466.51 193.37C462.203 190.877 457.557 189.63 452.57 189.63C447.583 189.63 442.937 190.877 438.63 193.37C434.323 195.75 430.81 199.32 428.09 204.08C425.483 208.727 424.18 214.28 424.18 220.74C424.18 227.2 425.483 232.867 428.09 237.74C430.81 242.613 434.323 246.353 438.63 248.96C443.05 251.453 447.697 252.7 452.57 252.7C457.557 252.7 462.203 251.453 466.51 248.96C470.817 246.467 474.273 242.84 476.88 238.08C479.6 233.207 480.96 227.54 480.96 221.08ZM574.415 172.8C581.555 172.8 587.902 174.33 593.455 177.39C599.122 180.45 603.542 184.983 606.715 190.99C610.002 196.997 611.645 204.25 611.645 212.75V268H592.435V215.64C592.435 207.253 590.338 200.85 586.145 196.43C581.952 191.897 576.228 189.63 568.975 189.63C561.722 189.63 555.942 191.897 551.635 196.43C547.442 200.85 545.345 207.253 545.345 215.64V268H525.965V142.2H545.345V185.21C548.632 181.243 552.768 178.183 557.755 176.03C562.855 173.877 568.408 172.8 574.415 172.8ZM629.905 220.74C629.905 211.333 631.832 203.003 635.685 195.75C639.652 188.497 644.979 182.887 651.665 178.92C658.465 174.84 665.945 172.8 674.105 172.8C681.472 172.8 687.875 174.273 693.315 177.22C698.869 180.053 703.289 183.623 706.575 187.93V174.33H726.125V268H706.575V254.06C703.289 258.48 698.812 262.163 693.145 265.11C687.479 268.057 681.019 269.53 673.765 269.53C665.719 269.53 658.352 267.49 651.665 263.41C644.979 259.217 639.652 253.437 635.685 246.07C631.832 238.59 629.905 230.147 629.905 220.74ZM706.575 221.08C706.575 214.62 705.215 209.01 702.495 204.25C699.889 199.49 696.432 195.863 692.125 193.37C687.819 190.877 683.172 189.63 678.185 189.63C673.199 189.63 668.552 190.877 664.245 193.37C659.939 195.75 656.425 199.32 653.705 204.08C651.099 208.727 649.795 214.28 649.795 220.74C649.795 227.2 651.099 232.867 653.705 237.74C656.425 242.613 659.939 246.353 664.245 248.96C668.665 251.453 673.312 252.7 678.185 252.7C683.172 252.7 687.819 251.453 692.125 248.96C696.432 246.467 699.889 242.84 702.495 238.08C705.215 233.207 706.575 227.54 706.575 221.08ZM770.96 188.1C774.247 183.793 778.723 180.167 784.39 177.22C790.057 174.273 796.46 172.8 803.6 172.8C811.76 172.8 819.183 174.84 825.87 178.92C832.67 182.887 837.997 188.497 841.85 195.75C845.703 203.003 847.63 211.333 847.63 220.74C847.63 230.147 845.703 238.59 841.85 246.07C837.997 253.437 832.67 259.217 825.87 263.41C819.183 267.49 811.76 269.53 803.6 269.53C796.46 269.53 790.113 268.113 784.56 265.28C779.007 262.333 774.473 258.707 770.96 254.4V312.54H751.58V174.33H770.96V188.1ZM827.91 220.74C827.91 214.28 826.55 208.727 823.83 204.08C821.223 199.32 817.71 195.75 813.29 193.37C808.983 190.877 804.337 189.63 799.35 189.63C794.477 189.63 789.83 190.877 785.41 193.37C781.103 195.863 777.59 199.49 774.87 204.25C772.263 209.01 770.96 214.62 770.96 221.08C770.96 227.54 772.263 233.207 774.87 238.08C777.59 242.84 781.103 246.467 785.41 248.96C789.83 251.453 794.477 252.7 799.35 252.7C804.337 252.7 808.983 251.453 813.29 248.96C817.71 246.353 821.223 242.613 823.83 237.74C826.55 232.867 827.91 227.2 827.91 220.74ZM886.175 188.1C889.462 183.793 893.938 180.167 899.605 177.22C905.272 174.273 911.675 172.8 918.815 172.8C926.975 172.8 934.398 174.84 941.085 178.92C947.885 182.887 953.212 188.497 957.065 195.75C960.918 203.003 962.845 211.333 962.845 220.74C962.845 230.147 960.918 238.59 957.065 246.07C953.212 253.437 947.885 259.217 941.085 263.41C934.398 267.49 926.975 269.53 918.815 269.53C911.675 269.53 905.328 268.113 899.775 265.28C894.222 262.333 889.688 258.707 886.175 254.4V312.54H866.795V174.33H886.175V188.1ZM943.125 220.74C943.125 214.28 941.765 208.727 939.045 204.08C936.438 199.32 932.925 195.75 928.505 193.37C924.198 190.877 919.552 189.63 914.565 189.63C909.692 189.63 905.045 190.877 900.625 193.37C896.318 195.863 892.805 199.49 890.085 204.25C887.478 209.01 886.175 214.62 886.175 221.08C886.175 227.54 887.478 233.207 890.085 238.08C892.805 242.84 896.318 246.467 900.625 248.96C905.045 251.453 909.692 252.7 914.565 252.7C919.552 252.7 924.198 251.453 928.505 248.96C932.925 246.353 936.438 242.613 939.045 237.74C941.765 232.867 943.125 227.2 943.125 220.74ZM1067.86 218.87C1067.86 222.383 1067.63 225.557 1067.18 228.39H995.61C996.176 235.87 998.953 241.877 1003.94 246.41C1008.93 250.943 1015.05 253.21 1022.3 253.21C1032.73 253.21 1040.09 248.847 1044.4 240.12H1065.31C1062.48 248.733 1057.32 255.817 1049.84 261.37C1042.47 266.81 1033.29 269.53 1022.3 269.53C1013.35 269.53 1005.3 267.547 998.16 263.58C991.133 259.5 985.58 253.833 981.5 246.58C977.533 239.213 975.55 230.713 975.55 221.08C975.55 211.447 977.476 203.003 981.33 195.75C985.296 188.383 990.793 182.717 997.82 178.75C1004.96 174.783 1013.12 172.8 1022.3 172.8C1031.14 172.8 1039.02 174.727 1045.93 178.58C1052.84 182.433 1058.23 187.873 1062.08 194.9C1065.93 201.813 1067.86 209.803 1067.86 218.87ZM1047.63 212.75C1047.52 205.61 1044.97 199.887 1039.98 195.58C1034.99 191.273 1028.82 189.12 1021.45 189.12C1014.76 189.12 1009.04 191.273 1004.28 195.58C999.52 199.773 996.686 205.497 995.78 212.75H1047.63Z" fill="#67717E"/>
</svg>
